<?xml version="1.0" standalone="no"?>
<!DOCTYPE svg PUBLIC "-//W3C//DTD SVG 20010904//EN"
 "http://www.w3.org/TR/2001/REC-SVG-20010904/DTD/svg10.dtd">
<svg version="1.0" xmlns="http://www.w3.org/2000/svg"
 width="256.000000pt" height="256.000000pt" viewBox="0 0 256.000000 256.000000"
 preserveAspectRatio="xMidYMid meet">
<metadata>
Created by potrace 1.11, written by Peter Selinger 2001-2013
</metadata>
<g transform="translate(0.000000,256.000000) scale(0.100000,-0.100000)"
fill="#000000" stroke="none">
<path d="M0 1280 l0 -1280 1280 0 1280 0 0 1280 0 1280 -1280 0 -1280 0 0
-1280z m342 708 l3 -463 273 -3 272 -2 0 -60 0 -60 -335 0 -335 0 0 525 0 525
60 0 60 0 2 -462z m989 -62 c118 -25 206 -85 252 -171 18 -33 22 -57 22 -135
0 -86 -3 -100 -28 -142 -15 -26 -46 -62 -70 -81 -38 -31 -142 -97 -151 -97 -2
0 -20 22 -39 49 l-35 49 81 53 c95 63 117 90 124 151 8 66 -23 129 -79 162
-58 34 -156 56 -250 56 l-78 0 0 -485 0 -485 -65 0 -65 0 -2 538 c-2 295 -2
540 0 545 6 13 313 7 383 -7z m414 -942 c77 -166 144 -303 148 -305 5 -2 72
133 151 301 l142 305 67 3 67 3 0 -530 c0 -291 -3 -536 -6 -545 -5 -14 -43
-16 -325 -16 l-319 0 0 60 0 60 260 0 260 0 -1 338 c0 334 -1 337 -19 297 -38
-84 -271 -580 -274 -582 -1 -2 -68 136 -147 306 l-144 308 -3 -383 -2 -384
-65 0 -65 0 0 535 0 536 67 -3 67 -3 141 -301z"/>
</g>
</svg>
