<svg xmlns="http://www.w3.org/2000/svg" viewBox="0 0 1200 400"><defs><style>.a{fill:#ff5429;}.b,.c,.d,.e{fill:none;stroke-miterlimit:10;}.b,.c{stroke:#fff;}.b{stroke-width:25px;}.c{stroke-width:6px;}.d,.e{stroke:#ff5429;}.d{stroke-width:15px;}.e{stroke-width:20px;}</style></defs><title>LP Mode Logo_rectangle</title><rect class="a" width="1200" height="400"/><line class="b" x1="74.5" y1="90" x2="74.5" y2="300"/><line class="b" x1="68" y1="287.5" x2="196" y2="287.5"/><line class="b" x1="234.5" y1="90" x2="234.5" y2="300"/><line class="b" x1="467.5" y1="93" x2="467.5" y2="308"/><line class="b" x1="611.5" y1="93" x2="611.5" y2="308"/><line class="b" x1="494" y1="299.5" x2="623" y2="299.5"/><line class="b" x1="469.15" y1="98.49" x2="549.85" y2="271.51"/><line class="b" x1="609.85" y1="98.49" x2="529.15" y2="271.51"/><line class="c" x1="539.5" y1="266" x2="539.5" y2="277"/><line class="d" x1="517.07" y1="248.66" x2="531.93" y2="280.34"/><line class="d" x1="561.93" y1="248.66" x2="547.07" y2="280.34"/><line class="d" x1="456" y1="85" x2="621" y2="85"/><line class="b" x1="860.5" y1="122" x2="860.5" y2="314"/><path class="b" d="M862.5,135.5c148-19,148,182-1,165"/><path class="b" d="M803.5,210.5c0,80-29.1,93-65,93-40,0-63.75-16.95-65-93-1-61,29.1-80,65-80S803.5,152.5,803.5,210.5Z"/><line class="b" x1="1050.5" y1="232.5" x2="1132" y2="163"/><line class="e" x1="1042" y1="232.5" x2="1207" y2="232.5"/><path class="b" d="M1148.5,163.5c-60-58-128-42-127.65,60,.22,63.32,48.65,111,116.65,56.5"/><path class="b" d="M221.5,94.5c103-11,121,23,120,53-1,31.05-28,39-46,52"/></svg>